<svg xmlns="http://www.w3.org/2000/svg" xmlns:xlink="http://www.w3.org/1999/xlink" width="1500" height="500" viewBox="0 0 1500 500"><defs><clipPath id="b"><rect width="1500" height="500"/></clipPath></defs><g id="a" clip-path="url(#b)"><rect width="1500" height="500" fill="#0f0e17"/><g transform="translate(750 -149.234)"><path d="M661.36,57.816,504.99,232.343A77.515,77.515,0,1,1,401.8,347.519L183.982,590.624a357.045,357.045,0,0,0,219.633,75.129c198.06,0,358.619-160.56,358.619-358.619A357.408,357.408,0,0,0,661.36,57.816Z" transform="translate(-99.522 -57.816)" fill="#575757"/><circle cx="46.786" cy="46.786" r="46.786" transform="translate(313.82 192.978)" fill="#575757"/><rect width="511.18" height="322.095" transform="translate(79.148 326.63)" fill="#3f3d56"/><path d="M848.343,259.417s-32.947-1.336-33.838,32.5,0,62.778,0,62.778H880.4v-61S879.064,261.643,848.343,259.417Z" transform="translate(-207.787 -92.452)" fill="#3d2314"/><path d="M838.482,330.633s1.956,22.169-4.564,24.125,2.608,29.993,2.608,29.993l26.081,5.868,15-29.993-6.52-8.476s-11.084-15-5.868-25.429S838.482,330.633,838.482,330.633Z" transform="translate(-210.787 -103.364)" fill="#ffb9b9"/><path d="M838.482,330.633s1.956,22.169-4.564,24.125,2.608,29.993,2.608,29.993l26.081,5.868,15-29.993-6.52-8.476s-11.084-15-5.868-25.429S838.482,330.633,838.482,330.633Z" transform="translate(-210.787 -103.364)" opacity="0.1"/><circle cx="25.429" cy="25.429" r="25.429" transform="translate(611.395 186.844)" fill="#ffb9b9"/><path d="M728.8,419.621s-15.648,11.736-11.084,20.864,18.256,40.425,18.256,40.425,2.608,24.125,13.692,22.82,0-25.429,0-25.429l-13.692-37.165,4.564-7.172Z" transform="translate(-191.082 -119.979)" fill="#ffb9b9"/><path d="M970.182,424.345s17.6,13.692,7.172,18.908-54.769,29.993-54.769,29.993-26.733,20.212-29.993,4.564,17.6-15,17.6-15,41.729-25.429,43.685-30.645S970.182,424.345,970.182,424.345Z" transform="translate(-221.212 -120.791)" fill="#ffb9b9"/><path d="M797.885,531.721s-8.369,20.507-9.727,40.977c-.762,11.481,4.135,21.8,5.815,31.4a129.053,129.053,0,0,1-1.3,48.9l36.528,3.912a446.1,446.1,0,0,1,8.063-52.814c2.665-11.863,4.959-20.107,5.826-25.463.644-3.977.059-5.957,0-5.934.262.3-.444.668,1.326,7.61.618,2.425,2.244,6.424,3.667,11.531,7.82,28.064,11.846,65.069,11.846,65.069L899.6,653s-8.476-43.033-4.564-56.073c1.843-6.142,5.709-19.79,4.564-33.38-1.23-14.61-7.867-29.062-13.04-31.822C876.779,526.505,797.885,531.721,797.885,531.721Z" transform="translate(-204.096 -138.841)" fill="#575a89"/><path d="M832.082,678.657s-41.163-10.886-44.238-3.714-2.307,87.37-1.538,92.586,3.075,2.608.769,5.216-2.306-3.26-1.538,3.912,1.538,8.476,1.538,8.476-13.839,27.385,10.764,26.733,13.07-20.212,13.07-20.212,3.844-5.868,1.538-9.128-3.075-8.476,0-11.084-3.075-7.824-3.844-9.78-3.075-1.3,3.075-7.824,3.075-9.78,2.307-11.736,5.382-13.692,5.382-13.692Z" transform="translate(-202.476 -163.395)" fill="#2f2e41"/><path d="M886.365,677.525s40.929-9.733,44.567-2.6,2.729,86.948,1.819,92.139-3.638,2.6-.91,5.191,2.729-3.244,1.819,3.893-1.819,8.435-1.819,8.435,16.371,27.252-12.733,26.6-15.462-20.115-15.462-20.115-4.548-5.84-1.819-9.084,3.638-8.435,0-11.031,3.638-7.786,4.548-9.733,3.638-1.3-3.638-7.786-3.638-9.733-2.729-11.68-6.367-13.626-6.367-13.626Z" transform="translate(-234.376 -162.721)" fill="#2f2e41"/><path d="M842.437,380.057s-4.564-13.692-7.172-16.3-4.3-9.357-4.3-9.357-14.608,5.445-18.52,6.749-16.952,1.3-16.952,3.26v41.729s-1.3,8.476,1.3,29.993,10.432,34.557,1.3,43.685-1.3,31.3,3.26,35.209,93.238,24.125,93.89-23.473c0,0-21.516-37.817-12.388-50.205s16.952-33.253,16.952-33.253V366.365s-14.344-4.564-18.908-5.216-15.648-13.04-16.952-12.388-3.824-.025-3.824-.025l-.088,9.153Z" transform="translate(-204.31 -107.8)" fill="#ff8906"/><path d="M792.612,370.921l-9.128-3.26s-11.084,5.868-11.084,7.172-6.52,7.172-9.78,9.78-12.388,3.26-12.388,4.564-28.689,22.169-26.081,25.429,11.084,15,15.648,15,15.648-11.737,17.6-12.388,22.169-13.04,28.689-11.084S792.612,370.921,792.612,370.921Z" transform="translate(-192.302 -111.051)" fill="#ff8906"/><path d="M906.833,372.631l12.388-2.608s23.473,17.6,24.125,18.256,37.165,24.125,35.209,28.689-22.82,11.084-28.037,9.128-27.385-18.256-35.861-16.3S906.833,372.631,906.833,372.631Z" transform="translate(-223.716 -111.457)" fill="#ff8906"/><path d="M872.905,298.838c3.1-13,1.83-16.454,1.83-16.454l-39.626-9.8-13.8,13.357v13.8l1.393,4.306s5.731-4.306,3.5-10.54C826.2,293.516,870.679,308.189,872.905,298.838Z" transform="translate(-209.024 -94.717)" fill="#3d2314"/><path d="M883.427,294.708l-3.754,4.017c5.92.072-1.965,47.717.652,55.421l9.78.223V290.9Z" transform="translate(-219.052 -97.864)" fill="#3d2314"/><ellipse cx="1.956" cy="4.238" rx="1.956" ry="4.238" transform="translate(610.417 204.122)" fill="#ffb9b9"/><ellipse cx="1.956" cy="4.238" rx="1.956" ry="4.238" transform="translate(660.621 204.122)" fill="#ffb9b9"/><path d="M372.464,674.58l-1.171-1.171,50.348-50.348L377.09,578.51l1.171-1.171,45.722,45.722Z" transform="translate(-63.794 -99.195)" fill="#2f2e41"/><circle cx="17.392" cy="17.392" r="17.392" transform="translate(338.728 506.888)" fill="#f25f4c"/><circle cx="17.392" cy="17.392" r="17.392" transform="translate(293.178 557.407)" fill="#f25f4c"/><path d="M376.464,558.58l-1.171-1.171,50.348-50.348L381.09,462.51l1.171-1.171,45.722,45.722Z" transform="translate(-64.481 -79.265)" fill="#2f2e41"/><circle cx="17.392" cy="17.392" r="17.392" transform="translate(299.803 365.268)" fill="#f25f4c"/><circle cx="17.392" cy="17.392" r="17.392" transform="translate(342.041 410.818)" fill="#f25f4c"/><circle cx="17.392" cy="17.392" r="17.392" transform="translate(296.49 461.337)" fill="#f25f4c"/><rect width="86.131" height="15.736" transform="translate(101.867 347.048)" fill="#e53170" opacity="0.3"/><rect width="86.131" height="4.141" transform="translate(445.564 525.108)" fill="#e53170" opacity="0.3"/><rect width="86.131" height="4.141" transform="translate(445.564 537.53)" fill="#e53170" opacity="0.3"/><rect width="86.131" height="4.141" transform="translate(445.564 549.953)" fill="#e53170" opacity="0.3"/><rect width="86.131" height="4.141" transform="translate(445.564 562.376)" fill="#e53170" opacity="0.3"/><rect width="86.131" height="4.141" transform="translate(445.564 574.799)" fill="#e53170" opacity="0.3"/><rect width="86.131" height="4.141" transform="translate(445.564 587.221)" fill="#e53170" opacity="0.3"/><path d="M148.4,792.006c5.726,21.167,25.339,34.276,25.339,34.276s10.329-21.209,4.6-42.376S153,749.63,153,749.63,142.673,770.839,148.4,792.006Z" transform="translate(-93.111 -176.679)" fill="#3f3d56"/><path d="M150.771,791.865c15.712,15.3,17.632,38.808,17.632,38.808s-23.556-1.286-39.268-16.581S111.5,775.284,111.5,775.284,135.058,776.569,150.771,791.865Z" transform="translate(-87.069 -181.087)" fill="#ff8906"/><rect width="858" height="1.656" transform="translate(0 647.679)" fill="#3f3d56"/><path d="M1052.94,767.513a18.246,18.246,0,0,0-11.62-16.978,18.22,18.22,0,1,0-13.2,0,18.213,18.213,0,0,0,0,33.956,18.22,18.22,0,1,0,13.2,0A18.246,18.246,0,0,0,1052.94,767.513Zm-34.784-33.956a16.564,16.564,0,1,1,20.3,16.123,18.239,18.239,0,0,0-7.475,0A16.581,16.581,0,0,1,1018.156,733.557Zm33.127,67.911a16.564,16.564,0,1,1-20.3-16.123,18.239,18.239,0,0,0,7.475,0,16.581,16.581,0,0,1,12.826,16.123Zm-12.826-17.833a18.239,18.239,0,0,0-7.475,0,16.546,16.546,0,0,1,0-32.245,18.24,18.24,0,0,0,7.475,0,16.546,16.546,0,0,1,0,32.245Z" transform="translate(-242.56 -170.787)" fill="#3f3d56"/><path d="M651.72,187.778a18.22,18.22,0,1,1,18.22-18.22,18.22,18.22,0,0,1-18.22,18.22Zm0-34.784a16.564,16.564,0,1,0,16.564,16.564,16.564,16.564,0,0,0-16.564-16.564Z" transform="translate(-176.756 -73.884)" fill="#3f3d56"/></g></g></svg>